<mxfile host="app.diagrams.net" modified="2021-08-16T02:25:58.214Z" agent="5.0 (Macintosh; Intel Mac OS X 10_15_7) AppleWebKit/537.36 (KHTML, like Gecko) Chrome/92.0.4515.107 Safari/537.36" etag="rMHr-WD9ZW2XI73SF6dX" version="14.4.9" type="github">
  <diagram id="J_Lotsp_mXPnXYWjkfIi" name="第 1 页">
    <mxGraphModel dx="946" dy="621" grid="1" gridSize="10" guides="1" tooltips="1" connect="1" arrows="1" fold="1" page="1" pageScale="1" pageWidth="827" pageHeight="1169" math="0" shadow="0">
      <root>
        <mxCell id="0" />
        <mxCell id="1" parent="0" />
        <mxCell id="pTZEtxKPvUyGVxp6CDPN-6" value="" style="line;strokeWidth=2;html=1;" parent="1" vertex="1">
          <mxGeometry x="170" y="170" width="500" height="10" as="geometry" />
        </mxCell>
        <mxCell id="pTZEtxKPvUyGVxp6CDPN-7" value="" style="line;strokeWidth=2;html=1;" parent="1" vertex="1">
          <mxGeometry x="174" y="240" width="240" height="10" as="geometry" />
        </mxCell>
        <mxCell id="pTZEtxKPvUyGVxp6CDPN-8" value="" style="line;strokeWidth=2;html=1;" parent="1" vertex="1">
          <mxGeometry x="430" y="240" width="240" height="10" as="geometry" />
        </mxCell>
        <mxCell id="pTZEtxKPvUyGVxp6CDPN-9" value="" style="line;strokeWidth=2;html=1;" parent="1" vertex="1">
          <mxGeometry x="170" y="300" width="110" height="10" as="geometry" />
        </mxCell>
        <mxCell id="pTZEtxKPvUyGVxp6CDPN-13" value="" style="line;strokeWidth=2;html=1;" parent="1" vertex="1">
          <mxGeometry x="300" y="300" width="110" height="10" as="geometry" />
        </mxCell>
        <mxCell id="pTZEtxKPvUyGVxp6CDPN-14" value="" style="line;strokeWidth=2;html=1;" parent="1" vertex="1">
          <mxGeometry x="430" y="300" width="110" height="10" as="geometry" />
        </mxCell>
        <mxCell id="pTZEtxKPvUyGVxp6CDPN-15" value="" style="line;strokeWidth=2;html=1;" parent="1" vertex="1">
          <mxGeometry x="560" y="300" width="110" height="10" as="geometry" />
        </mxCell>
        <mxCell id="pTZEtxKPvUyGVxp6CDPN-16" value="" style="line;strokeWidth=2;html=1;" parent="1" vertex="1">
          <mxGeometry x="170" y="360" width="45" height="10" as="geometry" />
        </mxCell>
        <mxCell id="pTZEtxKPvUyGVxp6CDPN-18" value="" style="line;strokeWidth=2;html=1;" parent="1" vertex="1">
          <mxGeometry x="235" y="360" width="45" height="10" as="geometry" />
        </mxCell>
        <mxCell id="pTZEtxKPvUyGVxp6CDPN-19" value="" style="line;strokeWidth=2;html=1;" parent="1" vertex="1">
          <mxGeometry x="304" y="360" width="45" height="10" as="geometry" />
        </mxCell>
        <mxCell id="pTZEtxKPvUyGVxp6CDPN-20" value="" style="line;strokeWidth=2;html=1;" parent="1" vertex="1">
          <mxGeometry x="365" y="360" width="45" height="10" as="geometry" />
        </mxCell>
        <mxCell id="pTZEtxKPvUyGVxp6CDPN-24" value="" style="line;strokeWidth=2;html=1;" parent="1" vertex="1">
          <mxGeometry x="430" y="360" width="45" height="10" as="geometry" />
        </mxCell>
        <mxCell id="pTZEtxKPvUyGVxp6CDPN-25" value="" style="line;strokeWidth=2;html=1;" parent="1" vertex="1">
          <mxGeometry x="495" y="360" width="45" height="10" as="geometry" />
        </mxCell>
        <mxCell id="pTZEtxKPvUyGVxp6CDPN-26" value="" style="line;strokeWidth=2;html=1;" parent="1" vertex="1">
          <mxGeometry x="564" y="360" width="45" height="10" as="geometry" />
        </mxCell>
        <mxCell id="pTZEtxKPvUyGVxp6CDPN-27" value="" style="line;strokeWidth=2;html=1;" parent="1" vertex="1">
          <mxGeometry x="625" y="360" width="45" height="10" as="geometry" />
        </mxCell>
        <mxCell id="au4EKQuPG_PanbvWwLnH-1" value="1" style="text;html=1;align=center;verticalAlign=middle;resizable=0;points=[];autosize=1;" vertex="1" parent="1">
          <mxGeometry x="170" y="190" width="20" height="20" as="geometry" />
        </mxCell>
        <mxCell id="au4EKQuPG_PanbvWwLnH-2" value="n" style="text;html=1;align=center;verticalAlign=middle;resizable=0;points=[];autosize=1;" vertex="1" parent="1">
          <mxGeometry x="650" y="190" width="20" height="20" as="geometry" />
        </mxCell>
      </root>
    </mxGraphModel>
  </diagram>
</mxfile>
